<svg width="60" height="60" viewBox="0 0 60 60" fill="none" xmlns="http://www.w3.org/2000/svg">
<path d="M47.3077 0H12.6923C4.50769 0 0 4.50769 0 12.6923V47.3077C0 55.4923 4.50769 60 12.6923 60H47.3077C55.4923 60 60 55.4923 60 47.3077V12.6923C60 4.50769 55.4923 0 47.3077 0ZM55.3846 47.3077C55.3846 52.9692 52.9692 55.3846 47.3077 55.3846H12.6923C7.03077 55.3846 4.61538 52.9692 4.61538 47.3077V12.6923C4.61538 7.03077 7.03077 4.61538 12.6923 4.61538H47.3077C52.9692 4.61538 55.3846 7.03077 55.3846 12.6923V47.3077ZM46.1538 22.3077C46.1538 22.9197 45.9107 23.5067 45.4779 23.9395C45.0452 24.3723 44.4582 24.6154 43.8462 24.6154H31.5385C30.9264 24.6154 30.3395 24.3723 29.9067 23.9395C29.4739 23.5067 29.2308 22.9197 29.2308 22.3077C29.2308 21.6957 29.4739 21.1087 29.9067 20.6759C30.3395 20.2431 30.9264 20 31.5385 20H43.8462C44.4582 20 45.0452 20.2431 45.4779 20.6759C45.9107 21.1087 46.1538 21.6957 46.1538 22.3077ZM46.1538 37.6923C46.1538 38.3043 45.9107 38.8913 45.4779 39.3241C45.0452 39.7569 44.4582 40 43.8462 40H31.5385C30.9264 40 30.3395 39.7569 29.9067 39.3241C29.4739 38.8913 29.2308 38.3043 29.2308 37.6923C29.2308 37.0803 29.4739 36.4933 29.9067 36.0605C30.3395 35.6277 30.9264 35.3846 31.5385 35.3846H43.8462C44.4582 35.3846 45.0452 35.6277 45.4779 36.0605C45.9107 36.4933 46.1538 37.0803 46.1538 37.6923ZM23.9385 18.6154C24.1529 18.8297 24.323 19.0842 24.4391 19.3642C24.5552 19.6443 24.6149 19.9445 24.6149 20.2477C24.6149 20.5509 24.5552 20.8511 24.4391 21.1311C24.323 21.4112 24.1529 21.6657 23.9385 21.88L19.8462 26C19.6323 26.2147 19.3782 26.3851 19.0983 26.5013C18.8185 26.6176 18.5184 26.6774 18.2154 26.6774C17.9123 26.6774 17.6123 26.6176 17.3324 26.5013C17.0526 26.3851 16.7985 26.2147 16.5846 26L14.5323 23.9508C14.0978 23.5195 13.8523 22.9332 13.85 22.321C13.8477 21.7088 14.0887 21.1207 14.52 20.6862C14.9513 20.2516 15.5375 20.0062 16.1498 20.0039C16.762 20.0016 17.3501 20.2426 17.7846 20.6738L18.2062 21.0954L20.6677 18.6338C20.8807 18.4169 21.1345 18.2442 21.4145 18.1258C21.6945 18.0074 21.9952 17.9455 22.2992 17.9438C22.6033 17.9421 22.9046 18.0005 23.186 18.1158C23.4673 18.2311 23.723 18.4009 23.9385 18.6154ZM23.9385 34C24.1529 34.2143 24.323 34.4688 24.4391 34.7488C24.5552 35.0289 24.6149 35.3291 24.6149 35.6323C24.6149 35.9355 24.5552 36.2357 24.4391 36.5158C24.323 36.7958 24.1529 37.0503 23.9385 37.2646L19.8462 41.3846C19.6323 41.5993 19.3782 41.7697 19.0983 41.886C18.8185 42.0022 18.5184 42.0621 18.2154 42.0621C17.9123 42.0621 17.6123 42.0022 17.3324 41.886C17.0526 41.7697 16.7985 41.5993 16.5846 41.3846L14.5323 39.3354C14.099 38.9029 13.8552 38.3159 13.8546 37.7037C13.8541 37.0915 14.0967 36.5041 14.5292 36.0708C14.9617 35.6374 15.5487 35.3937 16.1609 35.3931C16.7731 35.3925 17.3605 35.6352 17.7938 36.0677L18.2154 36.4892L20.6769 34.0277C20.8891 33.8115 21.1419 33.6393 21.4207 33.5209C21.6996 33.4025 21.999 33.3402 22.302 33.3376C22.6049 33.3351 22.9053 33.3923 23.1861 33.5059C23.467 33.6196 23.7226 33.7875 23.9385 34Z" fill="#00B6F0"/>
</svg>
