<svg width="62" height="62" viewBox="0 0 62 62" fill="none" xmlns="http://www.w3.org/2000/svg">
<path d="M44.1185 10.3676V6.6176C44.1185 4.86251 43.4213 3.17929 42.1803 1.93825C40.9392 0.69721 39.256 0 37.5009 0H33.0892C31.3341 0 29.6509 0.69721 28.4098 1.93825C27.1688 3.17929 26.4716 4.86251 26.4716 6.6176V10.3676C20.9858 12.297 16.288 15.9793 13.104 20.8454C12.9447 21.0888 12.8349 21.3611 12.7808 21.6469C12.7267 21.9327 12.7295 22.2263 12.7889 22.511C12.9088 23.086 13.2523 23.5898 13.7437 23.9116C14.2352 24.2334 14.8343 24.3467 15.4093 24.2268C15.9843 24.1068 16.4881 23.7633 16.8099 23.2719C19.1138 19.7297 22.3866 16.9237 26.2391 15.1877C30.0916 13.4517 34.3616 12.8588 38.5414 13.4794C42.7211 14.1001 46.6346 15.9081 49.8165 18.6886C52.9983 21.4691 55.3146 25.105 56.4898 29.1639C57.665 33.2227 57.6497 37.5337 56.4457 41.5841C55.2417 45.6345 52.8997 49.2538 49.6982 52.0117C46.4967 54.7695 42.5705 56.5498 38.3864 57.1408C34.2024 57.7317 29.9367 57.1085 26.0966 55.3452C25.5642 55.1024 24.9572 55.0811 24.4091 55.2858C23.8609 55.4906 23.4166 55.9047 23.1738 56.4371C22.931 56.9695 22.9097 57.5765 23.1145 58.1246C23.3192 58.6728 23.7334 59.1171 24.2657 59.3599C27.5215 60.8911 31.0551 61.7425 34.651 61.8621C38.2468 61.9817 41.8293 61.3671 45.1796 60.0557C48.5298 58.7443 51.5776 56.7637 54.1368 54.2348C56.6959 51.706 58.7127 48.682 60.0639 45.3476C61.4151 42.0131 62.0723 38.4382 61.9955 34.8412C61.9187 31.2442 61.1094 27.7007 59.6171 24.4269C58.1248 21.1532 55.9808 18.2181 53.3161 15.8008C50.6513 13.3835 47.5218 11.5348 44.1185 10.3676ZM30.8833 9.24259V6.6176C30.8833 6.03257 31.1157 5.4715 31.5294 5.05782C31.9431 4.64414 32.5042 4.41174 33.0892 4.41174H37.5009C38.086 4.41174 38.647 4.64414 39.0607 5.05782C39.4744 5.4715 39.7068 6.03257 39.7068 6.6176V9.22053C38.2499 8.96515 36.7742 8.83233 35.2951 8.82347C33.8154 8.84064 32.3398 8.98083 30.8833 9.24259Z" fill="#00B6F0"/>
<path d="M48.0433 25.1025C47.6793 24.648 47.1504 24.3558 46.5719 24.2897C45.9934 24.2235 45.4122 24.3889 44.9551 24.7495L38.7566 29.6907C37.724 29.0259 36.5214 28.6736 35.2934 28.676C33.9845 28.676 32.7051 29.0641 31.6168 29.7912C30.5286 30.5184 29.6804 31.5519 29.1795 32.7611C28.6786 33.9703 28.5476 35.3009 28.8029 36.5846C29.0583 37.8683 29.6885 39.0474 30.614 39.9729C31.5395 40.8984 32.7187 41.5287 34.0024 41.784C35.286 42.0394 36.6166 41.9083 37.8258 41.4074C39.035 40.9066 40.0686 40.0584 40.7957 38.9701C41.5229 37.8819 41.911 36.6024 41.911 35.2936C41.9081 34.5408 41.7737 33.7943 41.5139 33.0877L47.6904 28.1466C48.1322 27.7838 48.4159 27.2637 48.4817 26.6958C48.5476 26.128 48.3904 25.5567 48.0433 25.1025ZM35.2934 37.4994C34.8571 37.4994 34.4306 37.3701 34.0679 37.1277C33.7051 36.8853 33.4224 36.5408 33.2554 36.1377C33.0885 35.7347 33.0448 35.2911 33.1299 34.8632C33.215 34.4353 33.4251 34.0423 33.7336 33.7338C34.0421 33.4253 34.4351 33.2152 34.863 33.1301C35.2909 33.045 35.7345 33.0887 36.1375 33.2556C36.5406 33.4226 36.8851 33.7053 37.1275 34.0681C37.3699 34.4308 37.4993 34.8573 37.4993 35.2936C37.4993 35.8786 37.2669 36.4397 36.8532 36.8534C36.4395 37.267 35.8784 37.4994 35.2934 37.4994Z" fill="#00B6F0"/>
<path d="M19.8512 28.6763H6.61602C6.03099 28.6763 5.46992 28.9087 5.05624 29.3224C4.64256 29.736 4.41016 30.2971 4.41016 30.8821C4.41016 31.4672 4.64256 32.0282 5.05624 32.4419C5.46992 32.8556 6.03099 33.088 6.61602 33.088H19.8512C20.4363 33.088 20.9973 32.8556 21.411 32.4419C21.8247 32.0282 22.0571 31.4672 22.0571 30.8821C22.0571 30.2971 21.8247 29.736 21.411 29.3224C20.9973 28.9087 20.4363 28.6763 19.8512 28.6763Z" fill="#00B6F0"/>
<path d="M19.8528 37.5H2.20587C1.62084 37.5 1.05976 37.7324 0.646084 38.1461C0.232403 38.5598 0 39.1208 0 39.7059C0 40.2909 0.232403 40.852 0.646084 41.2657C1.05976 41.6793 1.62084 41.9117 2.20587 41.9117H19.8528C20.4378 41.9117 20.9989 41.6793 21.4126 41.2657C21.8263 40.852 22.0587 40.2909 22.0587 39.7059C22.0587 39.1208 21.8263 38.5598 21.4126 38.1461C20.9989 37.7324 20.4378 37.5 19.8528 37.5Z" fill="#00B6F0"/>
<path d="M19.8512 46.3232H6.61602C6.03099 46.3232 5.46992 46.5556 5.05624 46.9693C4.64256 47.383 4.41016 47.9441 4.41016 48.5291C4.41016 49.1141 4.64256 49.6752 5.05624 50.0889C5.46992 50.5026 6.03099 50.735 6.61602 50.735H19.8512C20.4363 50.735 20.9973 50.5026 21.411 50.0889C21.8247 49.6752 22.0571 49.1141 22.0571 48.5291C22.0571 47.9441 21.8247 47.383 21.411 46.9693C20.9973 46.5556 20.4363 46.3232 19.8512 46.3232Z" fill="#00B6F0"/>
</svg>
