<svg width="67" height="62" viewBox="0 0 67 62" fill="none" xmlns="http://www.w3.org/2000/svg">
<path d="M3.90688 42.2897H5.93995C6.15341 45.5202 8.86255 48.097 12.1427 48.097H25.5775V51.4809H20.6818C17.5391 51.4809 15.1161 53.7466 15.1161 56.2883V59.2913C15.1161 60.2906 15.9255 61.1 16.9248 61.1H55.859C56.8583 61.1 57.6677 60.2906 57.6677 59.2913V56.2883C57.6677 53.7466 55.2447 51.4809 52.1021 51.4809H47.2064V48.097H60.6369C64.0539 48.097 66.8518 45.2991 66.8518 41.8821V11.5767C66.8518 8.15964 64.0539 5.36177 60.6369 5.36177H30.5972L27.0286 1.79322C27.0284 1.79304 27.0283 1.79286 27.0281 1.79268C26.4403 1.18754 25.7137 0.9 24.8936 0.9H3.90688C2.2519 0.9 0.9 2.25191 0.9 3.90688V39.2828C0.9 40.9378 2.2519 42.2897 3.90688 42.2897ZM53.6287 55.5847L53.629 55.585C53.8786 55.783 54.0525 56.02 54.0525 56.2883V57.4827H18.7335V56.2883C18.7335 56.0202 18.9071 55.7853 19.1574 55.5846C19.5426 55.2765 20.0855 55.0983 20.6818 55.0983H52.1042C52.7005 55.0983 53.2434 55.2765 53.6287 55.5847ZM27.1957 8.31777V7.07654L28.4369 8.31777H27.1957ZM4.51734 4.51734H23.5783V9.522C23.5783 10.8587 24.6547 11.9351 25.9915 11.9351H30.9961V38.6723H4.51734V4.51734ZM29.197 51.4831V48.0991H43.5912V51.4831H29.197ZM12.1448 44.4818C10.8551 44.4818 9.77588 43.5276 9.57892 42.2897H31.6044C33.2594 42.2897 34.6113 40.9378 34.6113 39.2828V10.6177C34.6113 10.0171 34.4489 9.4627 34.1284 8.97911H60.6369C62.064 8.97911 63.2345 10.1475 63.2345 11.5767V41.8842C63.2345 43.3113 62.066 44.4818 60.6369 44.4818H12.1448ZM7.51683 9.94917C7.51683 10.9485 8.32845 11.7578 9.3255 11.7578H19.9214C20.9207 11.7578 21.7301 10.9484 21.7301 9.94917C21.7301 8.9499 20.9207 8.1405 19.9214 8.1405H9.3255C8.32845 8.1405 7.51683 8.94982 7.51683 9.94917ZM7.51683 25.4703C7.51683 26.4674 8.32837 27.279 9.3255 27.279H26.1858C27.1851 27.279 27.9945 26.4696 27.9945 25.4703C27.9945 24.471 27.1851 23.6616 26.1858 23.6616H9.3255C8.32837 23.6616 7.51683 24.4732 7.51683 25.4703ZM7.51683 33.2319C7.51683 34.2291 8.32837 35.0406 9.3255 35.0406H26.1858C27.1851 35.0406 27.9945 34.2312 27.9945 33.2319C27.9945 32.2327 27.1851 31.4233 26.1858 31.4233H9.3255C8.32837 31.4233 7.51683 32.2348 7.51683 33.2319ZM7.51683 17.7108C7.51683 18.7102 8.32845 19.5195 9.3255 19.5195H26.1858C27.1851 19.5195 27.9945 18.7101 27.9945 17.7108C27.9945 16.7115 27.1851 15.9021 26.1858 15.9021H9.3255C8.32845 15.9021 7.51683 16.7115 7.51683 17.7108Z" fill="#00B6F0" stroke="#00B6F0" stroke-width="0.2"/>
</svg>
