<svg xmlns="http://www.w3.org/2000/svg" width="34.383" height="38.001" viewBox="0 0 34.383 38.001">
  <path id="Union_65" data-name="Union 65" d="M6.616,38a.749.749,0,0,0-.126-.058A3.283,3.283,0,0,1,3.9,34.5q0-1.65,0-3.3v-.4c-.3,0-.542,0-.786,0A3.226,3.226,0,0,1,.011,27.494q-.02-6.714,0-13.427A3.226,3.226,0,0,1,2.6,10.826a11.879,11.879,0,0,1,1.3-.1v-.407c0-2.324-.017-4.648.007-6.972A3.244,3.244,0,0,1,5.826.266,6.27,6.27,0,0,1,6.616,0H21.507a.849.849,0,0,0,.16.061A5.109,5.109,0,0,1,24.775,1.8q2.141,2.411,4.283,4.82a5.531,5.531,0,0,1,1.328,2.767c.076.444.091.9.136,1.373h.489a3.251,3.251,0,0,1,3.37,3.59q0,3.636,0,7.273c0,1.954.011,3.909,0,5.863a3.235,3.235,0,0,1-2.587,3.248,12.908,12.908,0,0,1-1.306.1c0,.136,0,.268,0,.4,0,1.163.011,2.326,0,3.487A3.307,3.307,0,0,1,28.4,37.8c-.205.078-.419.131-.629.2ZM5.99,34.375c0,1,.37,1.4,1.3,1.4H27.108c.1,0,.209,0,.312,0a1.058,1.058,0,0,0,.967-1.033c.02-1.3.006-2.592.006-3.909H5.99ZM31,28.574c.909,0,1.289-.4,1.29-1.37V14.369c0-.976-.375-1.381-1.279-1.381H3.364c-.887,0-1.272.409-1.272,1.351V27.212c0,.963.381,1.363,1.3,1.363H31ZM5.99,3.544q0,3.414,0,6.827v.374H28.372a3.391,3.391,0,0,0-.89-2.659C26.091,6.512,24.69,4.945,23.3,3.371a3.223,3.223,0,0,0-2.542-1.148q-6.768.012-13.533,0C6.386,2.227,5.99,2.651,5.99,3.544ZM21.86,24.662a.26.26,0,0,1-.193-.083.263.263,0,0,1-.083-.192v-7.15a.26.26,0,0,1,.083-.2.272.272,0,0,1,.193-.076h5.06a.264.264,0,0,1,.275.274v1.111a.272.272,0,0,1-.077.192.256.256,0,0,1-.2.083h-3.4V20.24H26.7a.259.259,0,0,1,.2.082.289.289,0,0,1,.076.2v1.1a.274.274,0,0,1-.076.193.259.259,0,0,1-.2.082h-3.18v2.487a.262.262,0,0,1-.274.274Zm-7.876,0a.26.26,0,0,1-.193-.083.263.263,0,0,1-.083-.192v-7.15a.26.26,0,0,1,.083-.2.272.272,0,0,1,.193-.076h2.859a3.72,3.72,0,0,1,2.508.769,2.917,2.917,0,0,1,.935,2.233c.007.213.011.495.011.847s0,.631-.011.836a3.008,3.008,0,0,1-.907,2.272,3.674,3.674,0,0,1-2.48.743Zm1.7-1.584h1.155a1.442,1.442,0,0,0,1.067-.347,1.6,1.6,0,0,0,.363-1.105q.023-.319.023-.825t-.023-.814a1.506,1.506,0,0,0-.391-1.089,1.527,1.527,0,0,0-1.094-.352h-1.1ZM6.548,24.662a.283.283,0,0,1-.274-.274v-7.15a.257.257,0,0,1,.083-.2.272.272,0,0,1,.192-.076H9.628a3.441,3.441,0,0,1,2.216.649,2.281,2.281,0,0,1,.809,1.892,2.2,2.2,0,0,1-.8,1.853,3.547,3.547,0,0,1-2.222.622H8.319v2.409a.259.259,0,0,1-.082.2.289.289,0,0,1-.2.076Zm1.739-4.2H9.573a1.091,1.091,0,0,0,.759-.247.932.932,0,0,0,.275-.732,1,1,0,0,0-.258-.72,1.024,1.024,0,0,0-.775-.27H8.286Z" transform="translate(-0.001)" fill="#3FA253"/>
</svg>
