<svg width="48" height="50" viewBox="0 0 48 50" fill="none" xmlns="http://www.w3.org/2000/svg">
<path fill-rule="evenodd" clip-rule="evenodd" d="M36.256 46.8129H11.4779C6.90752 46.8129 3.18763 43.0942 3.18763 38.5221V28.8782H13.2366V31.9559C13.2366 32.8359 13.9482 33.5492 14.8276 33.5492C15.7069 33.5492 16.4243 32.8359 16.4243 31.9559V28.8782H31.3097V31.9559C31.3097 32.8359 32.0271 33.5492 32.9064 33.5492C33.7858 33.5492 34.4974 32.8359 34.4974 31.9559V28.8782H44.5464V38.5221C44.5463 43.0942 40.8264 46.8129 36.256 46.8129ZM11.4779 12.9011H36.256C40.8264 12.9011 44.5463 16.621 44.5463 21.1919V25.691H34.4973V22.6133C34.4973 21.7328 33.7857 21.0195 32.9063 21.0195C32.027 21.0195 31.3096 21.7328 31.3096 22.6133V25.691H16.4243V22.6133C16.4243 21.7328 15.7069 21.0195 14.8276 21.0195C13.9482 21.0195 13.2366 21.7328 13.2366 22.6133V25.691H3.18763V21.1919C3.18763 16.621 6.90762 12.9011 11.4779 12.9011ZM23.8699 3.18774C27.6535 3.18774 30.7832 6.04566 31.2229 9.71346H16.511C16.9507 6.04555 20.0805 3.18774 23.8699 3.18774ZM36.256 9.71335H34.4279C33.9767 4.28103 29.4122 0 23.8699 0C18.3219 0 13.7574 4.28103 13.3061 9.71335H11.4779C5.1489 9.71335 0 14.8623 0 21.1919V38.5221C0 44.8517 5.1489 50 11.4779 50H36.256C42.5851 50 47.7339 44.8517 47.7339 38.5221V21.1919C47.7339 14.8623 42.585 9.71335 36.256 9.71335Z" fill="url(#paint0_linear_155_807)"/>
<defs>
<linearGradient id="paint0_linear_155_807" x1="4.17672" y1="0" x2="67.1083" y2="0" gradientUnits="userSpaceOnUse">
<stop stop-color="#00B6F0"/>
<stop offset="0.333333" stop-color="#46C4B6"/>
<stop offset="1" stop-color="#D2DF43"/>
</linearGradient>
</defs>
</svg>
