<svg width="33" height="25" viewBox="0 0 33 25" fill="none" xmlns="http://www.w3.org/2000/svg">
<path d="M23.8279 24.2272L14.7426 0.727258C14.5763 0.288357 14.1552 -0.00141085 13.6858 5.16655e-06H10.1745C9.706 0.00135682 9.28635 0.29016 9.11771 0.727258L0.0380969 24.2272C-0.0292282 24.4017 -0.00637888 24.5981 0.0991786 24.7525C0.204736 24.9069 0.379485 24.9994 0.566528 25H4.15175C4.38751 24.9997 4.59921 24.8556 4.68584 24.6363L6.5779 19.6818C6.66221 19.4632 6.87204 19.3188 7.10633 19.3181H16.754C16.9898 19.3184 17.2015 19.4625 17.2881 19.6818L19.1802 24.6363C19.2645 24.8549 19.4743 24.9993 19.7086 25H23.2938C23.4811 24.9994 23.6563 24.9073 23.7627 24.7532C23.8692 24.5991 23.8935 24.4027 23.8279 24.2272ZM14.9472 15.3409H8.9131C8.71589 15.3417 8.53109 15.2448 8.41962 15.0821C8.30814 14.9194 8.28445 14.7121 8.35628 14.5284L11.3733 6.63642C11.4595 6.40348 11.6817 6.24881 11.9301 6.24881C12.1786 6.24881 12.4007 6.40348 12.4869 6.63642L15.5097 14.5284C15.579 14.713 15.5534 14.9198 15.4412 15.082C15.3289 15.244 15.1443 15.3408 14.9472 15.3409Z" fill="url(#paint0_linear_334_202)"/>
<path d="M32.913 24.2272L28.305 12.0965C28.1375 11.6552 27.7146 11.3635 27.2425 11.3635H25.5948C25.1227 11.3635 24.6999 11.6552 24.5323 12.0965L22.4641 17.5397L23.8391 21.1078C23.927 21.0508 24.0298 21.0211 24.1346 21.0226H28.7027C28.9356 21.0224 29.145 21.1643 29.2312 21.3805L30.538 24.6419C30.6242 24.8582 30.8335 25.0001 31.0664 24.9998H32.3846C32.5716 24.9992 32.7464 24.9067 32.8519 24.7523C32.9575 24.5981 32.9803 24.4017 32.913 24.2272ZM27.7823 18.7499H25.0608C24.9643 18.7507 24.8739 18.703 24.8202 18.6229C24.7664 18.5428 24.7564 18.4412 24.7937 18.3521L26.1517 14.9544C26.1925 14.842 26.2992 14.7672 26.4187 14.7672C26.5382 14.7672 26.645 14.842 26.6858 14.9544L28.0494 18.3521C28.0854 18.4411 28.0749 18.5422 28.0214 18.6219C27.9679 18.7016 27.8783 18.7496 27.7823 18.7499Z" fill="url(#paint1_linear_334_202)"/>
<defs>
<linearGradient id="paint0_linear_334_202" x1="2.08811" y1="0" x2="33.5502" y2="0" gradientUnits="userSpaceOnUse">
<stop stop-color="#00B6F0"/>
<stop offset="0.333333" stop-color="#46C4B6"/>
<stop offset="1" stop-color="#D2DF43"/>
</linearGradient>
<linearGradient id="paint1_linear_334_202" x1="23.3817" y1="11.3635" x2="37.2076" y2="11.3635" gradientUnits="userSpaceOnUse">
<stop stop-color="#00B6F0"/>
<stop offset="0.333333" stop-color="#46C4B6"/>
<stop offset="1" stop-color="#D2DF43"/>
</linearGradient>
</defs>
</svg>
