<svg width="50" height="50" viewBox="0 0 50 50" fill="none" xmlns="http://www.w3.org/2000/svg">
<mask id="mask0_153_769" style="mask-type:luminance" maskUnits="userSpaceOnUse" x="0" y="0" width="50" height="50">
<path d="M50 0H0V50H50V0Z" fill="white"/>
<path d="M12.207 18.5547C11.1283 18.5547 10.2539 19.4291 10.2539 20.5078C10.2539 21.5865 11.1283 22.4609 12.207 22.4609C13.2857 22.4609 14.1602 21.5865 14.1602 20.5078C14.1602 19.4291 13.2857 18.5547 12.207 18.5547Z" fill="white"/>
<path d="M20.7031 18.5547C19.6244 18.5547 18.75 19.4291 18.75 20.5078C18.75 21.5865 19.6244 22.4609 20.7031 22.4609C21.7818 22.4609 22.6562 21.5865 22.6562 20.5078C22.6562 19.4291 21.7818 18.5547 20.7031 18.5547Z" fill="white"/>
<path d="M29.1992 18.5547C28.1205 18.5547 27.2461 19.4291 27.2461 20.5078C27.2461 21.5865 28.1205 22.4609 29.1992 22.4609C30.2779 22.4609 31.1523 21.5865 31.1523 20.5078C31.1523 19.4291 30.2779 18.5547 29.1992 18.5547Z" fill="white"/>
<path d="M37.6953 18.5547C36.6166 18.5547 35.7422 19.4291 35.7422 20.5078C35.7422 21.5865 36.6166 22.4609 37.6953 22.4609C38.774 22.4609 39.6484 21.5865 39.6484 20.5078C39.6484 19.4291 38.774 18.5547 37.6953 18.5547Z" fill="white"/>
<path d="M14.1602 29.0039C14.1602 27.9252 13.2857 27.0508 12.207 27.0508C11.1283 27.0508 10.2539 27.9252 10.2539 29.0039C10.2539 30.0826 11.1283 30.957 12.207 30.957C13.2857 30.957 14.1602 30.0826 14.1602 29.0039Z" fill="white"/>
<path d="M14.1602 37.5C14.1602 36.4213 13.2857 35.5469 12.207 35.5469C11.1283 35.5469 10.2539 36.4213 10.2539 37.5C10.2539 38.5787 11.1283 39.4531 12.207 39.4531C13.2857 39.4531 14.1602 38.5787 14.1602 37.5Z" fill="white"/>
<path d="M22.6562 29.0039C22.6562 27.9252 21.7818 27.0508 20.7031 27.0508C19.6244 27.0508 18.75 27.9252 18.75 29.0039C18.75 30.0826 19.6244 30.957 20.7031 30.957C21.7818 30.957 22.6562 30.0826 22.6562 29.0039Z" fill="white"/>
<path d="M22.6562 37.5C22.6562 36.4213 21.7818 35.5469 20.7031 35.5469C19.6244 35.5469 18.75 36.4213 18.75 37.5C18.75 38.5787 19.6244 39.4531 20.7031 39.4531C21.7818 39.4531 22.6562 38.5787 22.6562 37.5Z" fill="white"/>
<path d="M20.7031 18.5547C19.6244 18.5547 18.75 19.4291 18.75 20.5078C18.75 21.5865 19.6244 22.4609 20.7031 22.4609C21.7818 22.4609 22.6562 21.5865 22.6562 20.5078C22.6562 19.4291 21.7818 18.5547 20.7031 18.5547Z" fill="white"/>
<path d="M22.6562 29.0039C22.6562 27.9252 21.7818 27.0508 20.7031 27.0508C19.6244 27.0508 18.75 27.9252 18.75 29.0039C18.75 30.0826 19.6244 30.957 20.7031 30.957C21.7818 30.957 22.6562 30.0826 22.6562 29.0039Z" fill="white"/>
<path d="M22.6562 37.5C22.6562 36.4213 21.7818 35.5469 20.7031 35.5469C19.6244 35.5469 18.75 36.4213 18.75 37.5C18.75 38.5787 19.6244 39.4531 20.7031 39.4531C21.7818 39.4531 22.6562 38.5787 22.6562 37.5Z" fill="white"/>
<path d="M38.7783 30.957H36.0084C35.5898 30.957 35.2188 30.7936 35.0894 30.3972L34.2198 27.7156C34.0752 27.2723 33.688 27.0507 33.3008 27.0507C32.9136 27.0507 32.5264 27.2723 32.3818 27.7156L31.5122 30.3972C31.3829 30.7936 31.0118 30.957 30.5932 30.957H27.8273C26.891 30.957 26.5019 32.2548 27.2592 32.8025L29.4878 34.4492C29.8265 34.6942 29.9682 35.1285 29.8388 35.5249L28.9694 38.1893C28.6801 39.0757 29.699 39.8129 30.4565 39.265L32.7328 37.6178C32.9022 37.4954 33.1015 37.4341 33.3008 37.4341C33.5001 37.4341 33.6995 37.4954 33.8689 37.6178L36.1452 39.265C36.9026 39.8129 37.9216 39.0757 37.6323 38.1893L36.7628 35.5249C36.6334 35.1285 36.7751 34.6942 37.1139 34.4492L39.3463 32.8025C40.1037 32.2548 39.7145 30.957 38.7783 30.957Z" fill="white"/>
</mask>
<g mask="url(#mask0_153_769)">
<mask id="mask1_153_769" style="mask-type:luminance" maskUnits="userSpaceOnUse" x="0" y="0" width="50" height="50">
<path d="M0 3.8147e-06H50V50H0V3.8147e-06Z" fill="white"/>
</mask>
<g mask="url(#mask1_153_769)">
<path d="M48.0469 42.1875C48.0469 45.4235 45.4235 48.0469 42.1875 48.0469H7.8125C4.57646 48.0469 1.95312 45.4235 1.95312 42.1875V11.7188C1.95312 8.48271 4.57646 5.85938 7.8125 5.85938H42.1875C45.4235 5.85938 48.0469 8.48271 48.0469 11.7188V32.4219" stroke="url(#paint0_linear_153_769)" stroke-width="4" stroke-miterlimit="10" stroke-linecap="round" stroke-linejoin="round"/>
<path d="M12.207 18.5547C11.1283 18.5547 10.2539 19.4291 10.2539 20.5078C10.2539 21.5865 11.1283 22.4609 12.207 22.4609C13.2857 22.4609 14.1602 21.5865 14.1602 20.5078C14.1602 19.4291 13.2857 18.5547 12.207 18.5547Z" fill="url(#paint1_linear_153_769)"/>
<path d="M20.7031 18.5547C19.6244 18.5547 18.75 19.4291 18.75 20.5078C18.75 21.5865 19.6244 22.4609 20.7031 22.4609C21.7818 22.4609 22.6562 21.5865 22.6562 20.5078C22.6562 19.4291 21.7818 18.5547 20.7031 18.5547Z" fill="url(#paint2_linear_153_769)"/>
<path d="M29.1992 18.5547C28.1205 18.5547 27.2461 19.4291 27.2461 20.5078C27.2461 21.5865 28.1205 22.4609 29.1992 22.4609C30.2779 22.4609 31.1523 21.5865 31.1523 20.5078C31.1523 19.4291 30.2779 18.5547 29.1992 18.5547Z" fill="url(#paint3_linear_153_769)"/>
<path d="M37.6953 18.5547C36.6166 18.5547 35.7422 19.4291 35.7422 20.5078C35.7422 21.5865 36.6166 22.4609 37.6953 22.4609C38.774 22.4609 39.6484 21.5865 39.6484 20.5078C39.6484 19.4291 38.774 18.5547 37.6953 18.5547Z" fill="url(#paint4_linear_153_769)"/>
<path d="M14.1602 29.0039C14.1602 27.9252 13.2857 27.0508 12.207 27.0508C11.1283 27.0508 10.2539 27.9252 10.2539 29.0039C10.2539 30.0826 11.1283 30.957 12.207 30.957C13.2857 30.957 14.1602 30.0826 14.1602 29.0039Z" fill="url(#paint5_linear_153_769)"/>
<path d="M14.1602 37.5C14.1602 36.4213 13.2857 35.5469 12.207 35.5469C11.1283 35.5469 10.2539 36.4213 10.2539 37.5C10.2539 38.5787 11.1283 39.4531 12.207 39.4531C13.2857 39.4531 14.1602 38.5787 14.1602 37.5Z" fill="url(#paint6_linear_153_769)"/>
<path d="M22.6562 29.0039C22.6562 27.9252 21.7818 27.0508 20.7031 27.0508C19.6244 27.0508 18.75 27.9252 18.75 29.0039C18.75 30.0826 19.6244 30.957 20.7031 30.957C21.7818 30.957 22.6562 30.0826 22.6562 29.0039Z" fill="url(#paint7_linear_153_769)"/>
<path d="M22.6562 37.5C22.6562 36.4213 21.7818 35.5469 20.7031 35.5469C19.6244 35.5469 18.75 36.4213 18.75 37.5C18.75 38.5787 19.6244 39.4531 20.7031 39.4531C21.7818 39.4531 22.6562 38.5787 22.6562 37.5Z" fill="url(#paint8_linear_153_769)"/>
<path d="M20.7031 18.5547C19.6244 18.5547 18.75 19.4291 18.75 20.5078C18.75 21.5865 19.6244 22.4609 20.7031 22.4609C21.7818 22.4609 22.6562 21.5865 22.6562 20.5078C22.6562 19.4291 21.7818 18.5547 20.7031 18.5547Z" fill="url(#paint9_linear_153_769)"/>
<path d="M22.6562 29.0039C22.6562 27.9252 21.7818 27.0508 20.7031 27.0508C19.6244 27.0508 18.75 27.9252 18.75 29.0039C18.75 30.0826 19.6244 30.957 20.7031 30.957C21.7818 30.957 22.6562 30.0826 22.6562 29.0039Z" fill="url(#paint10_linear_153_769)"/>
<path d="M22.6562 37.5C22.6562 36.4213 21.7818 35.5469 20.7031 35.5469C19.6244 35.5469 18.75 36.4213 18.75 37.5C18.75 38.5787 19.6244 39.4531 20.7031 39.4531C21.7818 39.4531 22.6562 38.5787 22.6562 37.5Z" fill="url(#paint11_linear_153_769)"/>
<path d="M12.207 1.95313V9.76562" stroke="url(#paint12_linear_153_769)" stroke-width="4" stroke-miterlimit="10" stroke-linecap="round" stroke-linejoin="round"/>
<path d="M37.6953 9.76562V1.95313" stroke="url(#paint13_linear_153_769)" stroke-width="4" stroke-miterlimit="10" stroke-linecap="round" stroke-linejoin="round"/>
<path d="M24.9023 1.95313V9.76562" stroke="url(#paint14_linear_153_769)" stroke-width="4" stroke-miterlimit="10" stroke-linecap="round" stroke-linejoin="round"/>
<path d="M38.7783 30.957H36.0084C35.5898 30.957 35.2188 30.7936 35.0894 30.3972L34.2198 27.7156C34.0752 27.2723 33.688 27.0507 33.3008 27.0507C32.9136 27.0507 32.5264 27.2723 32.3818 27.7156L31.5122 30.3972C31.3829 30.7936 31.0118 30.957 30.5932 30.957H27.8273C26.891 30.957 26.5019 32.2548 27.2592 32.8025L29.4878 34.4492C29.8265 34.6942 29.9682 35.1285 29.8388 35.5249L28.9694 38.1893C28.6801 39.0757 29.699 39.8129 30.4565 39.265L32.7328 37.6178C32.9022 37.4954 33.1015 37.4341 33.3008 37.4341C33.5001 37.4341 33.6995 37.4954 33.8689 37.6178L36.1452 39.265C36.9026 39.8129 37.9216 39.0757 37.6323 38.1893L36.7628 35.5249C36.6334 35.1285 36.7751 34.6942 37.1139 34.4492L39.3463 32.8025C40.1037 32.2548 39.7145 30.957 38.7783 30.957Z" fill="url(#paint15_linear_153_769)"/>
</g>
</g>
<defs>
<linearGradient id="paint0_linear_153_769" x1="5.98633" y1="48.0469" x2="66.7555" y2="48.0469" gradientUnits="userSpaceOnUse">
<stop stop-color="#00B6F0"/>
<stop offset="0.333333" stop-color="#46C4B6"/>
<stop offset="1" stop-color="#D2DF43"/>
</linearGradient>
<linearGradient id="paint1_linear_153_769" x1="10.5957" y1="22.4609" x2="15.7456" y2="22.4609" gradientUnits="userSpaceOnUse">
<stop stop-color="#00B6F0"/>
<stop offset="0.333333" stop-color="#46C4B6"/>
<stop offset="1" stop-color="#D2DF43"/>
</linearGradient>
<linearGradient id="paint2_linear_153_769" x1="19.0918" y1="22.4609" x2="24.2417" y2="22.4609" gradientUnits="userSpaceOnUse">
<stop stop-color="#00B6F0"/>
<stop offset="0.333333" stop-color="#46C4B6"/>
<stop offset="1" stop-color="#D2DF43"/>
</linearGradient>
<linearGradient id="paint3_linear_153_769" x1="27.5879" y1="22.4609" x2="32.7378" y2="22.4609" gradientUnits="userSpaceOnUse">
<stop stop-color="#00B6F0"/>
<stop offset="0.333333" stop-color="#46C4B6"/>
<stop offset="1" stop-color="#D2DF43"/>
</linearGradient>
<linearGradient id="paint4_linear_153_769" x1="36.084" y1="22.4609" x2="41.2339" y2="22.4609" gradientUnits="userSpaceOnUse">
<stop stop-color="#00B6F0"/>
<stop offset="0.333333" stop-color="#46C4B6"/>
<stop offset="1" stop-color="#D2DF43"/>
</linearGradient>
<linearGradient id="paint5_linear_153_769" x1="10.5957" y1="30.957" x2="15.7456" y2="30.957" gradientUnits="userSpaceOnUse">
<stop stop-color="#00B6F0"/>
<stop offset="0.333333" stop-color="#46C4B6"/>
<stop offset="1" stop-color="#D2DF43"/>
</linearGradient>
<linearGradient id="paint6_linear_153_769" x1="10.5957" y1="39.4531" x2="15.7456" y2="39.4531" gradientUnits="userSpaceOnUse">
<stop stop-color="#00B6F0"/>
<stop offset="0.333333" stop-color="#46C4B6"/>
<stop offset="1" stop-color="#D2DF43"/>
</linearGradient>
<linearGradient id="paint7_linear_153_769" x1="19.0918" y1="30.957" x2="24.2417" y2="30.957" gradientUnits="userSpaceOnUse">
<stop stop-color="#00B6F0"/>
<stop offset="0.333333" stop-color="#46C4B6"/>
<stop offset="1" stop-color="#D2DF43"/>
</linearGradient>
<linearGradient id="paint8_linear_153_769" x1="19.0918" y1="39.4531" x2="24.2417" y2="39.4531" gradientUnits="userSpaceOnUse">
<stop stop-color="#00B6F0"/>
<stop offset="0.333333" stop-color="#46C4B6"/>
<stop offset="1" stop-color="#D2DF43"/>
</linearGradient>
<linearGradient id="paint9_linear_153_769" x1="19.0918" y1="22.4609" x2="24.2417" y2="22.4609" gradientUnits="userSpaceOnUse">
<stop stop-color="#00B6F0"/>
<stop offset="0.333333" stop-color="#46C4B6"/>
<stop offset="1" stop-color="#D2DF43"/>
</linearGradient>
<linearGradient id="paint10_linear_153_769" x1="19.0918" y1="30.957" x2="24.2417" y2="30.957" gradientUnits="userSpaceOnUse">
<stop stop-color="#00B6F0"/>
<stop offset="0.333333" stop-color="#46C4B6"/>
<stop offset="1" stop-color="#D2DF43"/>
</linearGradient>
<linearGradient id="paint11_linear_153_769" x1="19.0918" y1="39.4531" x2="24.2417" y2="39.4531" gradientUnits="userSpaceOnUse">
<stop stop-color="#00B6F0"/>
<stop offset="0.333333" stop-color="#46C4B6"/>
<stop offset="1" stop-color="#D2DF43"/>
</linearGradient>
<linearGradient id="paint12_linear_153_769" x1="12.2945" y1="9.76562" x2="13.6129" y2="9.76562" gradientUnits="userSpaceOnUse">
<stop stop-color="#00B6F0"/>
<stop offset="0.333333" stop-color="#46C4B6"/>
<stop offset="1" stop-color="#D2DF43"/>
</linearGradient>
<linearGradient id="paint13_linear_153_769" x1="37.7828" y1="9.76562" x2="39.1012" y2="9.76562" gradientUnits="userSpaceOnUse">
<stop stop-color="#00B6F0"/>
<stop offset="0.333333" stop-color="#46C4B6"/>
<stop offset="1" stop-color="#D2DF43"/>
</linearGradient>
<linearGradient id="paint14_linear_153_769" x1="24.9898" y1="9.76562" x2="26.3082" y2="9.76562" gradientUnits="userSpaceOnUse">
<stop stop-color="#00B6F0"/>
<stop offset="0.333333" stop-color="#46C4B6"/>
<stop offset="1" stop-color="#D2DF43"/>
</linearGradient>
<linearGradient id="paint15_linear_153_769" x1="27.9867" y1="39.4531" x2="44.9774" y2="39.4531" gradientUnits="userSpaceOnUse">
<stop stop-color="#00B6F0"/>
<stop offset="0.333333" stop-color="#46C4B6"/>
<stop offset="1" stop-color="#D2DF43"/>
</linearGradient>
</defs>
</svg>
