<svg width="52" height="52" viewBox="0 0 52 52" fill="none" xmlns="http://www.w3.org/2000/svg">
<path d="M33.041 27.043L33.041 27.0432C33.0446 30.6315 35.9525 33.5394 39.5408 33.543H39.5413C43.1295 33.5394 46.0374 30.6315 46.041 27.0432V27.043V24.9594C46.041 24.2459 45.4624 23.668 44.7492 23.668C41.8127 23.668 40.3038 23.1506 39.5373 22.665C39.1558 22.4233 38.9569 22.1888 38.8544 22.0265C38.8029 21.9449 38.7748 21.8799 38.7601 21.8391C38.7548 21.8244 38.7512 21.8128 38.7489 21.8046C38.733 21.1049 38.1607 20.543 37.4574 20.543C36.7441 20.543 36.166 21.1211 36.166 21.8344V21.8424L36.1665 21.8504C36.1982 22.3419 36.017 22.8232 35.669 23.1708L35.6689 23.171C35.3212 23.519 34.84 23.7001 34.3485 23.6685L34.3405 23.668H34.3324C33.6191 23.668 33.041 24.2461 33.041 24.9594L33.041 27.043ZM35.6242 27.043V26.0645C36.489 25.8243 37.2589 25.3241 37.8293 24.632C38.904 25.4087 40.6391 26.0646 43.4574 26.2175V27.043C43.4574 29.2059 41.704 30.9594 39.541 30.9594C37.3777 30.9594 35.6242 29.2059 35.6242 27.043Z" fill="url(#paint0_linear_771_1567)" stroke="url(#paint1_linear_771_1567)" stroke-width="0.5"/>
<path d="M45.791 25.207H46.041V24.957V21.832C46.041 18.2424 43.1306 15.332 39.541 15.332C35.951 15.332 33.041 18.2424 33.041 21.832V24.957V25.207H33.291H35.3742H35.6242V24.957V21.832C35.6242 19.6691 37.3777 17.9156 39.541 17.9156C41.704 17.9156 43.4574 19.6691 43.4574 21.832V24.957V25.207H43.7074H45.791Z" fill="url(#paint2_linear_771_1567)" stroke="url(#paint3_linear_771_1567)" stroke-width="0.5"/>
<path d="M27.834 40.584V40.5844V49.9594C27.834 50.6727 28.4125 51.2512 29.1258 51.2512H49.959C50.6723 51.2512 51.2508 50.6727 51.2508 49.9594V40.5844V40.584C51.2453 36.4214 47.872 33.0481 43.7093 33.043H43.709H41.6258H41.3758V33.293V35.3762V35.6262H41.6258L43.7087 35.6262C43.7088 35.6262 43.7088 35.6262 43.7089 35.6262C46.4461 35.6295 48.6643 37.8478 48.6676 40.5847V48.668H30.4176L30.4176 40.5847C30.4208 37.8478 32.6387 35.6295 35.3759 35.6262C35.3759 35.6262 35.376 35.6262 35.3761 35.6262L37.459 35.6262H37.709V35.3762V33.293V33.043H37.459L35.3758 33.043L35.3755 33.043C31.2127 33.0481 27.8395 36.4214 27.834 40.584Z" fill="url(#paint4_linear_771_1567)" stroke="url(#paint5_linear_771_1567)" stroke-width="0.5"/>
<path d="M36.416 32H36.166V32.25V34.3332C36.166 36.1974 37.6768 37.7082 39.541 37.7082C41.4048 37.7082 42.916 36.1974 42.916 34.3332V32.25V32H42.666H40.5824H40.3324V32.25V34.3332C40.3324 34.7705 39.9781 35.125 39.541 35.125C39.1038 35.125 38.7492 34.7704 38.7492 34.3332V32.25V32H38.4992H36.416Z" fill="url(#paint6_linear_771_1567)" stroke="url(#paint7_linear_771_1567)" stroke-width="0.5"/>
<path d="M38.5 36.168H38.25V36.418V45.793V46.043H38.5H40.5832H40.8332V45.793V36.418V36.168H40.5832H38.5Z" fill="url(#paint8_linear_771_1567)" stroke="url(#paint9_linear_771_1567)" stroke-width="0.5"/>
<path d="M26 51.25H26.25V51V48.9168V48.6668H26H6.20821C4.62051 48.6668 3.33321 47.3795 3.33321 45.7918V10.9096L10.9096 3.33321H35.375C36.9627 3.33321 38.25 4.62051 38.25 6.20821V13.5V13.75H38.5H40.5832H40.8332V13.5V6.20821V6.20791C40.8296 3.19533 38.3883 0.753598 35.3753 0.75H35.375H10.375C10.0325 0.75 9.70378 0.886225 9.46161 1.1284L1.1284 9.46161C0.886225 9.70378 0.75 10.0325 0.75 10.375L0.75 45.7918L0.75 45.7921C0.753598 48.8047 3.19531 51.2464 6.20791 51.25H6.20821H26Z" fill="url(#paint10_linear_771_1567)" stroke="url(#paint11_linear_771_1567)" stroke-width="0.5"/>
<path d="M7.25078 26.2488H15.584C16.2973 26.2488 16.8758 25.6704 16.8758 24.957V16.6238C16.8758 15.9105 16.2973 15.332 15.584 15.332H7.25078C6.53745 15.332 5.95898 15.9105 5.95898 16.6238V24.957C5.95898 25.6704 6.53745 26.2488 7.25078 26.2488ZM14.2926 17.9156V23.6656H8.54257V17.9156H14.2926Z" fill="url(#paint12_linear_771_1567)" stroke="url(#paint13_linear_771_1567)" stroke-width="0.5"/>
<path d="M7.25078 39.7918H15.584C16.2973 39.7918 16.8758 39.2133 16.8758 38.5V30.1668C16.8758 29.4535 16.2973 28.875 15.584 28.875H7.25078C6.53745 28.875 5.95898 29.4535 5.95898 30.1668V38.5C5.95898 39.2133 6.53745 39.7918 7.25078 39.7918ZM14.2926 31.4582V37.2082H8.54257V31.4582H14.2926Z" fill="url(#paint14_linear_771_1567)" stroke="url(#paint15_linear_771_1567)" stroke-width="0.5"/>
<path d="M19.75 17.418H19.5V17.668V19.7512V20.0012H19.75H30.1668H30.4168V19.7512V17.668V17.418H30.1668H19.75Z" fill="url(#paint16_linear_771_1567)" stroke="url(#paint17_linear_771_1567)" stroke-width="0.5"/>
<path d="M19.75 21.582H19.5V21.832V23.9156V24.1656H19.75H30.1668H30.4168V23.9156V21.832V21.582H30.1668H19.75Z" fill="url(#paint18_linear_771_1567)" stroke="url(#paint19_linear_771_1567)" stroke-width="0.5"/>
<path d="M19.75 30.957H19.5V31.207V33.2906V33.5406H19.75H30.1668H30.4168V33.2906V31.207V30.957H30.1668H19.75Z" fill="url(#paint20_linear_771_1567)" stroke="url(#paint21_linear_771_1567)" stroke-width="0.5"/>
<path d="M19.75 35.125H19.5V35.375V37.4582V37.7082H19.75H27.0418H27.2918V37.4582V35.375V35.125H27.0418H19.75Z" fill="url(#paint22_linear_771_1567)" stroke="url(#paint23_linear_771_1567)" stroke-width="0.5"/>
<path d="M6.3369 24.0474L6.1601 24.2242L6.33692 24.401L7.81015 25.8739L7.98693 26.0506L8.16368 25.8738L16.4973 17.5403L16.6741 17.3635L16.4972 17.1867L15.024 15.7138L14.8472 15.5371L14.6705 15.7138L6.3369 24.0474Z" fill="url(#paint24_linear_771_1567)" stroke="url(#paint25_linear_771_1567)" stroke-width="0.5"/>
<path d="M6.3369 37.5865L6.16012 37.7633L6.3369 37.9401L7.81013 39.4133L7.98691 39.5901L8.16368 39.4133L16.4973 31.0797L16.674 30.9029L16.4973 30.7261L15.024 29.2529L14.8473 29.0761L14.6705 29.2529L6.3369 37.5865Z" fill="url(#paint26_linear_771_1567)" stroke="url(#paint27_linear_771_1567)" stroke-width="0.5"/>
<defs>
<linearGradient id="paint0_linear_771_1567" x1="34.3848" y1="20.793" x2="50.8645" y2="20.793" gradientUnits="userSpaceOnUse">
<stop stop-color="#00B6F0"/>
<stop offset="0.333333" stop-color="#46C4B6"/>
<stop offset="1" stop-color="#D2DF43"/>
</linearGradient>
<linearGradient id="paint1_linear_771_1567" x1="34.3848" y1="20.793" x2="50.8645" y2="20.793" gradientUnits="userSpaceOnUse">
<stop stop-color="#00B6F0"/>
<stop offset="0.333333" stop-color="#46C4B6"/>
<stop offset="1" stop-color="#D2DF43"/>
</linearGradient>
<linearGradient id="paint2_linear_771_1567" x1="34.3848" y1="15.582" x2="50.8645" y2="15.582" gradientUnits="userSpaceOnUse">
<stop stop-color="#00B6F0"/>
<stop offset="0.333333" stop-color="#46C4B6"/>
<stop offset="1" stop-color="#D2DF43"/>
</linearGradient>
<linearGradient id="paint3_linear_771_1567" x1="34.3848" y1="15.582" x2="50.8645" y2="15.582" gradientUnits="userSpaceOnUse">
<stop stop-color="#00B6F0"/>
<stop offset="0.333333" stop-color="#46C4B6"/>
<stop offset="1" stop-color="#D2DF43"/>
</linearGradient>
<linearGradient id="paint4_linear_771_1567" x1="30.0892" y1="33.293" x2="60.3023" y2="33.293" gradientUnits="userSpaceOnUse">
<stop stop-color="#00B6F0"/>
<stop offset="0.333333" stop-color="#46C4B6"/>
<stop offset="1" stop-color="#D2DF43"/>
</linearGradient>
<linearGradient id="paint5_linear_771_1567" x1="30.0892" y1="33.293" x2="60.3023" y2="33.293" gradientUnits="userSpaceOnUse">
<stop stop-color="#00B6F0"/>
<stop offset="0.333333" stop-color="#46C4B6"/>
<stop offset="1" stop-color="#D2DF43"/>
</linearGradient>
<linearGradient id="paint6_linear_771_1567" x1="36.9629" y1="32.25" x2="45.2028" y2="32.25" gradientUnits="userSpaceOnUse">
<stop stop-color="#00B6F0"/>
<stop offset="0.333333" stop-color="#46C4B6"/>
<stop offset="1" stop-color="#D2DF43"/>
</linearGradient>
<linearGradient id="paint7_linear_771_1567" x1="36.9629" y1="32.25" x2="45.2028" y2="32.25" gradientUnits="userSpaceOnUse">
<stop stop-color="#00B6F0"/>
<stop offset="0.333333" stop-color="#46C4B6"/>
<stop offset="1" stop-color="#D2DF43"/>
</linearGradient>
<linearGradient id="paint8_linear_771_1567" x1="38.6823" y1="36.418" x2="41.4287" y2="36.418" gradientUnits="userSpaceOnUse">
<stop stop-color="#00B6F0"/>
<stop offset="0.333333" stop-color="#46C4B6"/>
<stop offset="1" stop-color="#D2DF43"/>
</linearGradient>
<linearGradient id="paint9_linear_771_1567" x1="38.6823" y1="36.418" x2="41.4287" y2="36.418" gradientUnits="userSpaceOnUse">
<stop stop-color="#00B6F0"/>
<stop offset="0.333333" stop-color="#46C4B6"/>
<stop offset="1" stop-color="#D2DF43"/>
</linearGradient>
<linearGradient id="paint10_linear_771_1567" x1="4.46353" y1="1" x2="56.6493" y2="1" gradientUnits="userSpaceOnUse">
<stop stop-color="#00B6F0"/>
<stop offset="0.333333" stop-color="#46C4B6"/>
<stop offset="1" stop-color="#D2DF43"/>
</linearGradient>
<linearGradient id="paint11_linear_771_1567" x1="4.46353" y1="1" x2="56.6493" y2="1" gradientUnits="userSpaceOnUse">
<stop stop-color="#00B6F0"/>
<stop offset="0.333333" stop-color="#46C4B6"/>
<stop offset="1" stop-color="#D2DF43"/>
</linearGradient>
<linearGradient id="paint12_linear_771_1567" x1="7.12045" y1="15.582" x2="20.8538" y2="15.582" gradientUnits="userSpaceOnUse">
<stop stop-color="#00B6F0"/>
<stop offset="0.333333" stop-color="#46C4B6"/>
<stop offset="1" stop-color="#D2DF43"/>
</linearGradient>
<linearGradient id="paint13_linear_771_1567" x1="7.12045" y1="15.582" x2="20.8538" y2="15.582" gradientUnits="userSpaceOnUse">
<stop stop-color="#00B6F0"/>
<stop offset="0.333333" stop-color="#46C4B6"/>
<stop offset="1" stop-color="#D2DF43"/>
</linearGradient>
<linearGradient id="paint14_linear_771_1567" x1="7.12045" y1="29.125" x2="20.8538" y2="29.125" gradientUnits="userSpaceOnUse">
<stop stop-color="#00B6F0"/>
<stop offset="0.333333" stop-color="#46C4B6"/>
<stop offset="1" stop-color="#D2DF43"/>
</linearGradient>
<linearGradient id="paint15_linear_771_1567" x1="7.12045" y1="29.125" x2="20.8538" y2="29.125" gradientUnits="userSpaceOnUse">
<stop stop-color="#00B6F0"/>
<stop offset="0.333333" stop-color="#46C4B6"/>
<stop offset="1" stop-color="#D2DF43"/>
</linearGradient>
<linearGradient id="paint16_linear_771_1567" x1="20.6615" y1="17.668" x2="34.3948" y2="17.668" gradientUnits="userSpaceOnUse">
<stop stop-color="#00B6F0"/>
<stop offset="0.333333" stop-color="#46C4B6"/>
<stop offset="1" stop-color="#D2DF43"/>
</linearGradient>
<linearGradient id="paint17_linear_771_1567" x1="20.6615" y1="17.668" x2="34.3948" y2="17.668" gradientUnits="userSpaceOnUse">
<stop stop-color="#00B6F0"/>
<stop offset="0.333333" stop-color="#46C4B6"/>
<stop offset="1" stop-color="#D2DF43"/>
</linearGradient>
<linearGradient id="paint18_linear_771_1567" x1="20.6615" y1="21.832" x2="34.3948" y2="21.832" gradientUnits="userSpaceOnUse">
<stop stop-color="#00B6F0"/>
<stop offset="0.333333" stop-color="#46C4B6"/>
<stop offset="1" stop-color="#D2DF43"/>
</linearGradient>
<linearGradient id="paint19_linear_771_1567" x1="20.6615" y1="21.832" x2="34.3948" y2="21.832" gradientUnits="userSpaceOnUse">
<stop stop-color="#00B6F0"/>
<stop offset="0.333333" stop-color="#46C4B6"/>
<stop offset="1" stop-color="#D2DF43"/>
</linearGradient>
<linearGradient id="paint20_linear_771_1567" x1="20.6615" y1="31.207" x2="34.3948" y2="31.207" gradientUnits="userSpaceOnUse">
<stop stop-color="#00B6F0"/>
<stop offset="0.333333" stop-color="#46C4B6"/>
<stop offset="1" stop-color="#D2DF43"/>
</linearGradient>
<linearGradient id="paint21_linear_771_1567" x1="20.6615" y1="31.207" x2="34.3948" y2="31.207" gradientUnits="userSpaceOnUse">
<stop stop-color="#00B6F0"/>
<stop offset="0.333333" stop-color="#46C4B6"/>
<stop offset="1" stop-color="#D2DF43"/>
</linearGradient>
<linearGradient id="paint22_linear_771_1567" x1="20.388" y1="35.375" x2="30.0014" y2="35.375" gradientUnits="userSpaceOnUse">
<stop stop-color="#00B6F0"/>
<stop offset="0.333333" stop-color="#46C4B6"/>
<stop offset="1" stop-color="#D2DF43"/>
</linearGradient>
<linearGradient id="paint23_linear_771_1567" x1="20.388" y1="35.375" x2="30.0014" y2="35.375" gradientUnits="userSpaceOnUse">
<stop stop-color="#00B6F0"/>
<stop offset="0.333333" stop-color="#46C4B6"/>
<stop offset="1" stop-color="#D2DF43"/>
</linearGradient>
<linearGradient id="paint24_linear_771_1567" x1="7.37177" y1="15.8906" x2="20.3009" y2="15.8906" gradientUnits="userSpaceOnUse">
<stop stop-color="#00B6F0"/>
<stop offset="0.333333" stop-color="#46C4B6"/>
<stop offset="1" stop-color="#D2DF43"/>
</linearGradient>
<linearGradient id="paint25_linear_771_1567" x1="7.37177" y1="15.8906" x2="20.3009" y2="15.8906" gradientUnits="userSpaceOnUse">
<stop stop-color="#00B6F0"/>
<stop offset="0.333333" stop-color="#46C4B6"/>
<stop offset="1" stop-color="#D2DF43"/>
</linearGradient>
<linearGradient id="paint26_linear_771_1567" x1="7.37177" y1="29.4297" x2="20.3009" y2="29.4297" gradientUnits="userSpaceOnUse">
<stop stop-color="#00B6F0"/>
<stop offset="0.333333" stop-color="#46C4B6"/>
<stop offset="1" stop-color="#D2DF43"/>
</linearGradient>
<linearGradient id="paint27_linear_771_1567" x1="7.37177" y1="29.4297" x2="20.3009" y2="29.4297" gradientUnits="userSpaceOnUse">
<stop stop-color="#00B6F0"/>
<stop offset="0.333333" stop-color="#46C4B6"/>
<stop offset="1" stop-color="#D2DF43"/>
</linearGradient>
</defs>
</svg>
