<svg width="52" height="52" viewBox="0 0 52 52" fill="none" xmlns="http://www.w3.org/2000/svg">
<path d="M33.0419 27.041L33.0419 27.0413C33.0454 30.6295 35.9534 33.5374 39.5416 33.541H39.5421C43.1304 33.5374 46.0383 30.6295 46.0419 27.0413V27.041V24.9574C46.0419 24.244 45.4633 23.666 44.7501 23.666C41.8136 23.666 40.3046 23.1486 39.5381 22.663C39.1566 22.4213 38.9577 22.1869 38.8553 22.0246C38.8038 21.9429 38.7756 21.8779 38.7609 21.8372C38.7556 21.8225 38.752 21.8108 38.7497 21.8026C38.7339 21.103 38.1615 20.541 37.4583 20.541C36.745 20.541 36.1669 21.1191 36.1669 21.8324V21.8405L36.1674 21.8485C36.199 22.34 36.0179 22.8212 35.6699 23.1689L35.6697 23.169C35.3221 23.517 34.8408 23.6982 34.3493 23.6665L34.3413 23.666H34.3333C33.62 23.666 33.0419 24.2441 33.0419 24.9574L33.0419 27.041ZM35.6251 27.041V26.0625C36.4898 25.8224 37.2598 25.3222 37.8302 24.6301C38.9048 25.4068 40.6399 26.0626 43.4583 26.2156V27.041C43.4583 29.204 41.7048 30.9574 39.5419 30.9574C37.3785 30.9574 35.6251 29.204 35.6251 27.041Z" fill="url(#paint0_linear_153_560)" stroke="url(#paint1_linear_153_560)" stroke-width="0.5"/>
<path d="M45.7919 25.209H46.0419V24.959V21.834C46.0419 18.2444 43.1315 15.334 39.5419 15.334C35.9519 15.334 33.0419 18.2444 33.0419 21.834V24.959V25.209H33.2919H35.3751H35.6251V24.959V21.834C35.6251 19.671 37.3785 17.9176 39.5419 17.9176C41.7048 17.9176 43.4583 19.671 43.4583 21.834V24.959V25.209H43.7083H45.7919Z" fill="url(#paint2_linear_153_560)" stroke="url(#paint3_linear_153_560)" stroke-width="0.5"/>
<path d="M27.8331 40.5821V40.5824V49.9574C27.8331 50.6708 28.4116 51.2492 29.1249 51.2492H49.9581C50.6715 51.2492 51.2499 50.6708 51.2499 49.9574V40.5824V40.5821C51.2444 36.4194 47.8712 33.0461 43.7084 33.041H43.7081H41.6249H41.3749V33.291V35.3742V35.6242H41.6249L43.7078 35.6242C43.7079 35.6242 43.708 35.6242 43.708 35.6242C46.4452 35.6276 48.6634 37.8459 48.6667 40.5827V48.666H30.4167L30.4167 40.5827C30.42 37.8459 32.6378 35.6276 35.375 35.6242C35.3751 35.6242 35.3752 35.6242 35.3752 35.6242L37.4581 35.6242H37.7081V35.3742V33.291V33.041H37.4581L35.3749 33.041L35.3746 33.041C31.2119 33.0461 27.8387 36.4194 27.8331 40.5821Z" fill="url(#paint4_linear_153_560)" stroke="url(#paint5_linear_153_560)" stroke-width="0.5"/>
<path d="M36.4169 32H36.1669V32.25V34.3332C36.1669 36.1974 37.6776 37.7082 39.5419 37.7082C41.4057 37.7082 42.9169 36.1974 42.9169 34.3332V32.25V32H42.6669H40.5833H40.3333V32.25V34.3332C40.3333 34.7705 39.9789 35.125 39.5419 35.125C39.1047 35.125 38.7501 34.7704 38.7501 34.3332V32.25V32H38.5001H36.4169Z" fill="url(#paint6_linear_153_560)" stroke="url(#paint7_linear_153_560)" stroke-width="0.5"/>
<path d="M38.5 36.166H38.25V36.416V45.791V46.041H38.5H40.5832H40.8332V45.791V36.416V36.166H40.5832H38.5Z" fill="url(#paint8_linear_153_560)" stroke="url(#paint9_linear_153_560)" stroke-width="0.5"/>
<path d="M26 51.25H26.25V51V48.9168V48.6668H26H6.20821C4.62051 48.6668 3.33321 47.3795 3.33321 45.7918V10.9096L10.9096 3.33321H35.375C36.9627 3.33321 38.25 4.62051 38.25 6.20821V13.5V13.75H38.5H40.5832H40.8332V13.5V6.20821V6.20791C40.8296 3.19533 38.3883 0.753598 35.3753 0.75H35.375H10.375C10.0325 0.75 9.70378 0.886225 9.46161 1.1284L1.1284 9.46161C0.886225 9.70378 0.75 10.0325 0.75 10.375L0.75 45.7918L0.75 45.7921C0.753598 48.8047 3.19531 51.2464 6.20791 51.25H6.20821H26Z" fill="url(#paint10_linear_153_560)" stroke="url(#paint11_linear_153_560)" stroke-width="0.5"/>
<path d="M1.79187 11.416V11.666H2.04187H10.3751C11.0884 11.666 11.6669 11.0875 11.6669 10.3742V2.04102V1.79102H11.4169H9.33328H9.08328V2.04102V9.08243H2.04187H1.79187V9.33243V11.416Z" fill="url(#paint12_linear_153_560)" stroke="url(#paint13_linear_153_560)" stroke-width="0.5"/>
<path d="M36.4167 10.6242H36.6667V10.3742V8.29102C36.6667 6.42677 35.1555 4.91602 33.2917 4.91602H31.2081H30.9581V5.16602V7.24922V7.49922H31.2081H33.2917C33.7288 7.49922 34.0831 7.85371 34.0831 8.29102V10.3742V10.6242H34.3331H36.4167Z" fill="url(#paint14_linear_153_560)" stroke="url(#paint15_linear_153_560)" stroke-width="0.5"/>
<path d="M27.0419 4.91602H26.7919V5.16602V7.24922V7.49922H27.0419H29.1251H29.3751V7.24922V5.16602V4.91602H29.1251H27.0419Z" fill="url(#paint16_linear_153_560)" stroke="url(#paint17_linear_153_560)" stroke-width="0.5"/>
<path d="M7.24992 26.2508H15.5831C16.2965 26.2508 16.8749 25.6723 16.8749 24.959V16.6258C16.8749 15.9125 16.2965 15.334 15.5831 15.334H7.24992C6.5366 15.334 5.95813 15.9125 5.95813 16.6258V24.959C5.95813 25.6723 6.5366 26.2508 7.24992 26.2508ZM14.2917 17.9176V23.6676H8.54172V17.9176H14.2917Z" fill="url(#paint18_linear_153_560)" stroke="url(#paint19_linear_153_560)" stroke-width="0.5"/>
<path d="M7.24992 39.7918H15.5831C16.2965 39.7918 16.8749 39.2133 16.8749 38.5V30.1668C16.8749 29.4535 16.2965 28.875 15.5831 28.875H7.24992C6.5366 28.875 5.95813 29.4535 5.95813 30.1668V38.5C5.95813 39.2133 6.5366 39.7918 7.24992 39.7918ZM14.2917 31.4582V37.2082H8.54172V31.4582H14.2917Z" fill="url(#paint20_linear_153_560)" stroke="url(#paint21_linear_153_560)" stroke-width="0.5"/>
<path d="M19.75 17.416H19.5V17.666V19.7492V19.9992H19.75H30.1668H30.4168V19.7492V17.666V17.416H30.1668H19.75Z" fill="url(#paint22_linear_153_560)" stroke="url(#paint23_linear_153_560)" stroke-width="0.5"/>
<path d="M19.75 21.584H19.5V21.834V23.9176V24.1676H19.75H30.1668H30.4168V23.9176V21.834V21.584H30.1668H19.75Z" fill="url(#paint24_linear_153_560)" stroke="url(#paint25_linear_153_560)" stroke-width="0.5"/>
<path d="M19.75 30.959H19.5V31.209V33.2926V33.5426H19.75H30.1668H30.4168V33.2926V31.209V30.959H30.1668H19.75Z" fill="url(#paint26_linear_153_560)" stroke="url(#paint27_linear_153_560)" stroke-width="0.5"/>
<path d="M19.75 35.125H19.5V35.375V37.4582V37.7082H19.75H27.0418H27.2918V37.4582V35.375V35.125H27.0418H19.75Z" fill="url(#paint28_linear_153_560)" stroke="url(#paint29_linear_153_560)" stroke-width="0.5"/>
<path d="M6.33653 24.0455L6.15973 24.2223L6.33655 24.3991L7.80979 25.8719L7.98656 26.0486L8.16332 25.8719L16.4969 17.5383L16.6737 17.3615L16.4969 17.1847L15.0236 15.7119L14.8469 15.5351L14.6701 15.7119L6.33653 24.0455Z" fill="url(#paint30_linear_153_560)" stroke="url(#paint31_linear_153_560)" stroke-width="0.5"/>
<path d="M6.33714 37.587L6.16036 37.7638L6.33714 37.9405L7.81038 39.4138L7.98715 39.5906L8.16393 39.4138L16.4975 31.0802L16.6743 30.9034L16.4975 30.7266L15.0243 29.2534L14.8475 29.0766L14.6707 29.2534L6.33714 37.587Z" fill="url(#paint32_linear_153_560)" stroke="url(#paint33_linear_153_560)" stroke-width="0.5"/>
<defs>
<linearGradient id="paint0_linear_153_560" x1="34.3856" y1="20.791" x2="50.8654" y2="20.791" gradientUnits="userSpaceOnUse">
<stop stop-color="#00B6F0"/>
<stop offset="0.333333" stop-color="#46C4B6"/>
<stop offset="1" stop-color="#D2DF43"/>
</linearGradient>
<linearGradient id="paint1_linear_153_560" x1="34.3856" y1="20.791" x2="50.8654" y2="20.791" gradientUnits="userSpaceOnUse">
<stop stop-color="#00B6F0"/>
<stop offset="0.333333" stop-color="#46C4B6"/>
<stop offset="1" stop-color="#D2DF43"/>
</linearGradient>
<linearGradient id="paint2_linear_153_560" x1="34.3856" y1="15.584" x2="50.8654" y2="15.584" gradientUnits="userSpaceOnUse">
<stop stop-color="#00B6F0"/>
<stop offset="0.333333" stop-color="#46C4B6"/>
<stop offset="1" stop-color="#D2DF43"/>
</linearGradient>
<linearGradient id="paint3_linear_153_560" x1="34.3856" y1="15.584" x2="50.8654" y2="15.584" gradientUnits="userSpaceOnUse">
<stop stop-color="#00B6F0"/>
<stop offset="0.333333" stop-color="#46C4B6"/>
<stop offset="1" stop-color="#D2DF43"/>
</linearGradient>
<linearGradient id="paint4_linear_153_560" x1="30.0883" y1="33.291" x2="60.3014" y2="33.291" gradientUnits="userSpaceOnUse">
<stop stop-color="#00B6F0"/>
<stop offset="0.333333" stop-color="#46C4B6"/>
<stop offset="1" stop-color="#D2DF43"/>
</linearGradient>
<linearGradient id="paint5_linear_153_560" x1="30.0883" y1="33.291" x2="60.3014" y2="33.291" gradientUnits="userSpaceOnUse">
<stop stop-color="#00B6F0"/>
<stop offset="0.333333" stop-color="#46C4B6"/>
<stop offset="1" stop-color="#D2DF43"/>
</linearGradient>
<linearGradient id="paint6_linear_153_560" x1="36.9637" y1="32.25" x2="45.2036" y2="32.25" gradientUnits="userSpaceOnUse">
<stop stop-color="#00B6F0"/>
<stop offset="0.333333" stop-color="#46C4B6"/>
<stop offset="1" stop-color="#D2DF43"/>
</linearGradient>
<linearGradient id="paint7_linear_153_560" x1="36.9637" y1="32.25" x2="45.2036" y2="32.25" gradientUnits="userSpaceOnUse">
<stop stop-color="#00B6F0"/>
<stop offset="0.333333" stop-color="#46C4B6"/>
<stop offset="1" stop-color="#D2DF43"/>
</linearGradient>
<linearGradient id="paint8_linear_153_560" x1="38.6823" y1="36.416" x2="41.4287" y2="36.416" gradientUnits="userSpaceOnUse">
<stop stop-color="#00B6F0"/>
<stop offset="0.333333" stop-color="#46C4B6"/>
<stop offset="1" stop-color="#D2DF43"/>
</linearGradient>
<linearGradient id="paint9_linear_153_560" x1="38.6823" y1="36.416" x2="41.4287" y2="36.416" gradientUnits="userSpaceOnUse">
<stop stop-color="#00B6F0"/>
<stop offset="0.333333" stop-color="#46C4B6"/>
<stop offset="1" stop-color="#D2DF43"/>
</linearGradient>
<linearGradient id="paint10_linear_153_560" x1="4.46353" y1="1" x2="56.6493" y2="1" gradientUnits="userSpaceOnUse">
<stop stop-color="#00B6F0"/>
<stop offset="0.333333" stop-color="#46C4B6"/>
<stop offset="1" stop-color="#D2DF43"/>
</linearGradient>
<linearGradient id="paint11_linear_153_560" x1="4.46353" y1="1" x2="56.6493" y2="1" gradientUnits="userSpaceOnUse">
<stop stop-color="#00B6F0"/>
<stop offset="0.333333" stop-color="#46C4B6"/>
<stop offset="1" stop-color="#D2DF43"/>
</linearGradient>
<linearGradient id="paint12_linear_153_560" x1="2.86218" y1="2.04102" x2="15.222" y2="2.04102" gradientUnits="userSpaceOnUse">
<stop stop-color="#00B6F0"/>
<stop offset="0.333333" stop-color="#46C4B6"/>
<stop offset="1" stop-color="#D2DF43"/>
</linearGradient>
<linearGradient id="paint13_linear_153_560" x1="2.86218" y1="2.04102" x2="15.222" y2="2.04102" gradientUnits="userSpaceOnUse">
<stop stop-color="#00B6F0"/>
<stop offset="0.333333" stop-color="#46C4B6"/>
<stop offset="1" stop-color="#D2DF43"/>
</linearGradient>
<linearGradient id="paint14_linear_153_560" x1="31.6639" y1="5.16602" x2="38.5308" y2="5.16602" gradientUnits="userSpaceOnUse">
<stop stop-color="#00B6F0"/>
<stop offset="0.333333" stop-color="#46C4B6"/>
<stop offset="1" stop-color="#D2DF43"/>
</linearGradient>
<linearGradient id="paint15_linear_153_560" x1="31.6639" y1="5.16602" x2="38.5308" y2="5.16602" gradientUnits="userSpaceOnUse">
<stop stop-color="#00B6F0"/>
<stop offset="0.333333" stop-color="#46C4B6"/>
<stop offset="1" stop-color="#D2DF43"/>
</linearGradient>
<linearGradient id="paint16_linear_153_560" x1="27.2242" y1="5.16602" x2="29.9706" y2="5.16602" gradientUnits="userSpaceOnUse">
<stop stop-color="#00B6F0"/>
<stop offset="0.333333" stop-color="#46C4B6"/>
<stop offset="1" stop-color="#D2DF43"/>
</linearGradient>
<linearGradient id="paint17_linear_153_560" x1="27.2242" y1="5.16602" x2="29.9706" y2="5.16602" gradientUnits="userSpaceOnUse">
<stop stop-color="#00B6F0"/>
<stop offset="0.333333" stop-color="#46C4B6"/>
<stop offset="1" stop-color="#D2DF43"/>
</linearGradient>
<linearGradient id="paint18_linear_153_560" x1="7.1196" y1="15.584" x2="20.8529" y2="15.584" gradientUnits="userSpaceOnUse">
<stop stop-color="#00B6F0"/>
<stop offset="0.333333" stop-color="#46C4B6"/>
<stop offset="1" stop-color="#D2DF43"/>
</linearGradient>
<linearGradient id="paint19_linear_153_560" x1="7.1196" y1="15.584" x2="20.8529" y2="15.584" gradientUnits="userSpaceOnUse">
<stop stop-color="#00B6F0"/>
<stop offset="0.333333" stop-color="#46C4B6"/>
<stop offset="1" stop-color="#D2DF43"/>
</linearGradient>
<linearGradient id="paint20_linear_153_560" x1="7.1196" y1="29.125" x2="20.8529" y2="29.125" gradientUnits="userSpaceOnUse">
<stop stop-color="#00B6F0"/>
<stop offset="0.333333" stop-color="#46C4B6"/>
<stop offset="1" stop-color="#D2DF43"/>
</linearGradient>
<linearGradient id="paint21_linear_153_560" x1="7.1196" y1="29.125" x2="20.8529" y2="29.125" gradientUnits="userSpaceOnUse">
<stop stop-color="#00B6F0"/>
<stop offset="0.333333" stop-color="#46C4B6"/>
<stop offset="1" stop-color="#D2DF43"/>
</linearGradient>
<linearGradient id="paint22_linear_153_560" x1="20.6615" y1="17.666" x2="34.3948" y2="17.666" gradientUnits="userSpaceOnUse">
<stop stop-color="#00B6F0"/>
<stop offset="0.333333" stop-color="#46C4B6"/>
<stop offset="1" stop-color="#D2DF43"/>
</linearGradient>
<linearGradient id="paint23_linear_153_560" x1="20.6615" y1="17.666" x2="34.3948" y2="17.666" gradientUnits="userSpaceOnUse">
<stop stop-color="#00B6F0"/>
<stop offset="0.333333" stop-color="#46C4B6"/>
<stop offset="1" stop-color="#D2DF43"/>
</linearGradient>
<linearGradient id="paint24_linear_153_560" x1="20.6615" y1="21.834" x2="34.3948" y2="21.834" gradientUnits="userSpaceOnUse">
<stop stop-color="#00B6F0"/>
<stop offset="0.333333" stop-color="#46C4B6"/>
<stop offset="1" stop-color="#D2DF43"/>
</linearGradient>
<linearGradient id="paint25_linear_153_560" x1="20.6615" y1="21.834" x2="34.3948" y2="21.834" gradientUnits="userSpaceOnUse">
<stop stop-color="#00B6F0"/>
<stop offset="0.333333" stop-color="#46C4B6"/>
<stop offset="1" stop-color="#D2DF43"/>
</linearGradient>
<linearGradient id="paint26_linear_153_560" x1="20.6615" y1="31.209" x2="34.3948" y2="31.209" gradientUnits="userSpaceOnUse">
<stop stop-color="#00B6F0"/>
<stop offset="0.333333" stop-color="#46C4B6"/>
<stop offset="1" stop-color="#D2DF43"/>
</linearGradient>
<linearGradient id="paint27_linear_153_560" x1="20.6615" y1="31.209" x2="34.3948" y2="31.209" gradientUnits="userSpaceOnUse">
<stop stop-color="#00B6F0"/>
<stop offset="0.333333" stop-color="#46C4B6"/>
<stop offset="1" stop-color="#D2DF43"/>
</linearGradient>
<linearGradient id="paint28_linear_153_560" x1="20.388" y1="35.375" x2="30.0014" y2="35.375" gradientUnits="userSpaceOnUse">
<stop stop-color="#00B6F0"/>
<stop offset="0.333333" stop-color="#46C4B6"/>
<stop offset="1" stop-color="#D2DF43"/>
</linearGradient>
<linearGradient id="paint29_linear_153_560" x1="20.388" y1="35.375" x2="30.0014" y2="35.375" gradientUnits="userSpaceOnUse">
<stop stop-color="#00B6F0"/>
<stop offset="0.333333" stop-color="#46C4B6"/>
<stop offset="1" stop-color="#D2DF43"/>
</linearGradient>
<linearGradient id="paint30_linear_153_560" x1="7.3714" y1="15.8887" x2="20.3005" y2="15.8887" gradientUnits="userSpaceOnUse">
<stop stop-color="#00B6F0"/>
<stop offset="0.333333" stop-color="#46C4B6"/>
<stop offset="1" stop-color="#D2DF43"/>
</linearGradient>
<linearGradient id="paint31_linear_153_560" x1="7.3714" y1="15.8887" x2="20.3005" y2="15.8887" gradientUnits="userSpaceOnUse">
<stop stop-color="#00B6F0"/>
<stop offset="0.333333" stop-color="#46C4B6"/>
<stop offset="1" stop-color="#D2DF43"/>
</linearGradient>
<linearGradient id="paint32_linear_153_560" x1="7.37201" y1="29.4302" x2="20.3012" y2="29.4302" gradientUnits="userSpaceOnUse">
<stop stop-color="#00B6F0"/>
<stop offset="0.333333" stop-color="#46C4B6"/>
<stop offset="1" stop-color="#D2DF43"/>
</linearGradient>
<linearGradient id="paint33_linear_153_560" x1="7.37201" y1="29.4302" x2="20.3012" y2="29.4302" gradientUnits="userSpaceOnUse">
<stop stop-color="#00B6F0"/>
<stop offset="0.333333" stop-color="#46C4B6"/>
<stop offset="1" stop-color="#D2DF43"/>
</linearGradient>
</defs>
</svg>
