<svg width="74" height="63" viewBox="0 0 74 63" fill="none" xmlns="http://www.w3.org/2000/svg">
<path d="M72.5457 54.7951L72.5446 54.7927C72.0877 53.7774 71.1984 53.1281 70.126 53.1281H69.2647V18.3233C69.2647 15.7263 67.156 13.6037 64.5562 13.6037H56.6852V3.16542C56.6852 1.75017 55.535 0.6 54.1198 0.6H19.3169C17.9016 0.6 16.7515 1.75018 16.7515 3.16542V13.6148H8.89163C6.29322 13.6148 4.17196 15.7361 4.17196 18.3345V53.1392H3.29949C2.25132 53.1392 1.36175 53.7753 0.904031 54.7798L0.903612 54.7807C0.361634 55.9781 0.558415 57.407 1.3899 58.3665L1.38987 58.3665L1.39357 58.3706L3.68177 60.9379L3.68228 60.9384C4.50934 61.8628 5.64124 62.4 6.79318 62.4H66.6212C67.7764 62.4 68.8718 61.8714 69.7391 60.9319L69.7391 60.9319L69.7438 60.9266L72.0187 58.373C72.0192 58.3724 72.0196 58.3719 72.0201 58.3714C72.8798 57.4206 73.0738 55.9896 72.5457 54.7951ZM44.8337 44.1539H44.8331H19.7169V3.56542H53.7198V44.165L52.3457 44.165L52.3451 44.165L44.8337 44.1539ZM56.6852 44.5539V22.7081H66.2993V53.1281H45.1903C44.7626 53.1281 44.3503 53.3118 44.0615 53.6461L44.0599 53.6481L42.6951 55.2489H30.7313L29.382 53.6543C29.3812 53.6534 29.3805 53.6525 29.3797 53.6516C29.0959 53.3065 28.6665 53.1281 28.2464 53.1281H7.13737V22.7081H16.7515V44.565C16.7515 45.9803 17.9016 47.1305 19.3169 47.1305H46.3176L46.3182 47.1305L53.7626 47.1193L53.7632 47.1193L54.1198 47.1193C55.535 47.1193 56.6852 45.9691 56.6852 44.5539ZM69.8584 56.2856C69.8477 56.3427 69.8314 56.3706 69.8234 56.3807C69.823 56.3811 69.8227 56.3816 69.8223 56.382L67.5653 58.9281C67.5646 58.9288 67.5639 58.9296 67.5631 58.9304C67.246 59.2754 66.9112 59.4234 66.6435 59.4234H6.80434C6.53141 59.4234 6.18716 59.2704 5.89829 58.9443L5.89688 58.9427L3.61557 56.3943C3.6065 56.3821 3.59026 56.3536 3.57885 56.3046C3.56673 56.2526 3.56273 56.1882 3.57269 56.1184C3.57392 56.1098 3.57529 56.1015 3.57677 56.0935H27.5586L28.9079 57.6881C28.9087 57.689 28.9094 57.6899 28.9102 57.6908C29.194 58.0359 29.6235 58.2143 30.0435 58.2143H43.382C43.8097 58.2143 44.222 58.0306 44.5107 57.6962L44.5124 57.6943L45.8772 56.0934L67.7597 56.0823H67.7599H69.8595C69.8609 56.0892 69.8622 56.0964 69.8634 56.1039C69.87 56.1646 69.8689 56.2295 69.8584 56.2856ZM64.5562 16.5691C65.5158 16.5691 66.2993 17.3584 66.2993 18.3233V19.7427H56.6852V16.5691H64.5562ZM8.89163 16.5691H16.7515V19.7427H7.13737V18.3233C7.13737 17.3597 7.91956 16.5691 8.89163 16.5691Z" fill="#00B6F0" stroke="#00B6F0" stroke-width="0.8"/>
<path d="M40.9786 24.3469L33.9727 31.3528L32.2464 29.6265C31.666 29.0462 30.7318 29.0462 30.1515 29.6265C29.5711 30.2069 29.5711 31.141 30.1515 31.7214L32.9196 34.4895C33.2138 34.7837 33.598 34.9192 33.9727 34.9192C34.3474 34.9192 34.7315 34.7837 35.0257 34.4895L43.0734 26.4418C43.6538 25.8614 43.6538 24.9273 43.0734 24.3469C42.4931 23.7666 41.5589 23.7666 40.9786 24.3469Z" fill="#00B6F0" stroke="#00B6F0" stroke-width="0.8"/>
<path d="M23.5471 9.24669H48.8512C49.6748 9.24669 50.3339 8.58764 50.3339 7.76398C50.3339 6.94032 49.6748 6.28127 48.8512 6.28127H23.5471C22.7234 6.28127 22.0644 6.94032 22.0644 7.76398C22.0644 8.59032 22.7373 9.24669 23.5471 9.24669Z" fill="#00B6F0" stroke="#00B6F0" stroke-width="0.8"/>
<path d="M23.5471 14.2475H40.1895C41.0132 14.2475 41.6722 13.5885 41.6722 12.7648C41.6722 11.9412 41.0132 11.2821 40.1895 11.2821H23.5471C22.7234 11.2821 22.0644 11.9412 22.0644 12.7648C22.0644 13.5912 22.7373 14.2475 23.5471 14.2475Z" fill="#00B6F0" stroke="#00B6F0" stroke-width="0.8"/>
</svg>
