<svg xmlns="http://www.w3.org/2000/svg" width="23.211" height="20" viewBox="0 0 23.211 20">
  <path id="icon-contrast" d="M-2681.595,289.267a.739.739,0,0,1,.774-.745c.717,0,1.434,0,2.177,0v-1.391h-7.538A2.7,2.7,0,0,1-2689,284.3q0-5.241,0-10.48a2.7,2.7,0,0,1,2.821-2.823h16.565a2.7,2.7,0,0,1,2.824,2.821v10.5a2.7,2.7,0,0,1-2.816,2.805h-7.533v1.326h.247c.633,0,1.265,0,1.9,0a.744.744,0,0,1,.8.719.738.738,0,0,1-.786.758q-2.927.041-5.853.066h-.007A.735.735,0,0,1-2681.595,289.267Zm-4.581-16.786a1.224,1.224,0,0,0-1.343,1.352v10.456a1.227,1.227,0,0,0,1.355,1.361h16.563a1.221,1.221,0,0,0,1.331-1.34q0-5.238,0-10.478a1.224,1.224,0,0,0-1.344-1.351h-16.562Zm6.448,9.912a7.406,7.406,0,0,1-2.682-1.945l-.031-.028-.025-.022-.052-.046v-.167l.046-.045.037-.037c.021-.022.046-.044.067-.067a7.314,7.314,0,0,1,2.767-1.947,4.686,4.686,0,0,1,1.711-.334,4.866,4.866,0,0,1,2.051.475,7.493,7.493,0,0,1,2.469,1.853l.031.028.026.022.05.046v.167l-.044.045-.037.037-.074.074a7.189,7.189,0,0,1-3,2.024,4.531,4.531,0,0,1-1.472.251A4.776,4.776,0,0,1-2679.729,282.393Zm1.838-3.808a1.682,1.682,0,0,0-1.681,1.677,1.682,1.682,0,0,0,1.674,1.685h.005a1.67,1.67,0,0,0,1.188-.493,1.669,1.669,0,0,0,.493-1.188,1.682,1.682,0,0,0-1.678-1.68v0Zm-3.549,1.682a8.644,8.644,0,0,0,1.229.957,2.443,2.443,0,0,1,0-1.908A7.114,7.114,0,0,0-2681.439,280.267Zm5.865.95a6.973,6.973,0,0,0,1.229-.952,7.089,7.089,0,0,0-1.229-.952A2.461,2.461,0,0,1-2675.574,281.218Zm-2.322-.012a.926.926,0,0,1-.662-.28.93.93,0,0,1-.273-.67.941.941,0,0,1,.94-.931.937.937,0,0,1,.667.28.936.936,0,0,1,.273.67.944.944,0,0,1-.941.931Zm-.264-.941a.269.269,0,0,0,.08.188.269.269,0,0,0,.187.082.28.28,0,0,0,.269-.272.277.277,0,0,0-.269-.266A.276.276,0,0,0-2678.16,280.264Zm3.191-1.977a.458.458,0,0,1-.126-.338.439.439,0,0,1,.16-.314c.282-.236.545-.451.809-.658a.605.605,0,0,1,.184-.088l.06-.021.036-.015.04,0a.545.545,0,0,1,.448.281.43.43,0,0,1-.1.534c-.316.266-.58.481-.828.675a.492.492,0,0,1-.3.1A.529.529,0,0,1-2674.968,278.287Zm-6.6.045c-.239-.191-.489-.4-.787-.643a.433.433,0,0,1-.126-.529.548.548,0,0,1,.45-.3l.041-.006.04.017a.709.709,0,0,0,.066.026.67.67,0,0,1,.193.1c.29.226.573.459.785.637a.453.453,0,0,1,.17.328.448.448,0,0,1-.132.338.519.519,0,0,1-.371.155A.535.535,0,0,1-2681.568,278.332Zm5.388-.665a.534.534,0,0,1-.456-.232.442.442,0,0,1-.028-.427c.069-.147.14-.292.212-.434.027-.057.055-.112.084-.169l.04-.08c.064-.132.13-.265.2-.4a.518.518,0,0,1,.462-.291.529.529,0,0,1,.2.039.479.479,0,0,1,.275.266.473.473,0,0,1-.021.375c-.137.28-.275.559-.41.839l-.111.223a.5.5,0,0,1-.433.286h0Zm-3.484,0a.478.478,0,0,1-.412-.261c-.215-.429-.389-.783-.546-1.114a.43.43,0,0,1-.014-.342.494.494,0,0,1,.273-.271.545.545,0,0,1,.207-.04.488.488,0,0,1,.442.258c.228.449.4.795.552,1.123a.42.42,0,0,1-.027.411.535.535,0,0,1-.459.236Zm1.309-.53a.539.539,0,0,1-.062-.245q0-.25,0-.5c0-.22,0-.448,0-.671a.509.509,0,0,1,.39-.537l.023-.006h.186l.021.007a.509.509,0,0,1,.391.536c0,.248,0,.5,0,.746,0,.149,0,.3,0,.447a.474.474,0,0,1-.391.458.476.476,0,0,1-.114.013A.493.493,0,0,1-2678.355,277.136Z" transform="translate(2689.499 -270.5)" fill="#fff" stroke="rgba(0,0,0,0)" stroke-width="1"/>
</svg>
