<svg width="20" height="20" viewBox="0 0 20 20" fill="none" xmlns="http://www.w3.org/2000/svg">
<g clip-path="url(#clip0_1_1168)">
<path d="M15.5441 19.4889L9.99999 16.0196L4.45589 19.4888C4.25448 19.6164 3.99468 19.6067 3.80073 19.4659C3.60734 19.3257 3.51863 19.082 3.57698 18.8502L5.16312 12.505L0.209524 8.30511C0.0263987 8.15175 -0.0451248 7.90226 0.0287034 7.67511C0.102531 7.44738 0.307375 7.28773 0.545422 7.27113L7.01081 6.81964L9.4564 0.753707C9.63609 0.310817 10.3639 0.310817 10.5436 0.753707L12.9892 6.81964L19.4546 7.27113C19.6926 7.28773 19.8975 7.44738 19.9713 7.67511C20.0451 7.90226 19.9736 8.15175 19.7905 8.30511L14.8368 12.5051L16.423 18.8503C16.4813 19.0821 16.3926 19.3258 16.1992 19.466C16.0013 19.6098 15.7422 19.613 15.5441 19.4889Z" fill="#E0A100"/>
</g>
<defs>
<clipPath id="clip0_1_1168">
<rect width="20" height="20" fill="white"/>
</clipPath>
</defs>
</svg>
